<?xml version="1.0" encoding="UTF-8"?>
<svg width="10px" height="13px" viewBox="0 0 10 13" version="1.1" xmlns="http://www.w3.org/2000/svg" xmlns:xlink="http://www.w3.org/1999/xlink">
    <!-- Generator: Sketch 52.2 (67145) - http://www.bohemiancoding.com/sketch -->
    <title>Group 12</title>
    <desc>Created with Sketch.</desc>
    <g id="Page-1" stroke="none" stroke-width="1" fill="none" fill-rule="evenodd">
        <g id="PDC-Application-Style-guide-Copy-3" transform="translate(-472.000000, -209.000000)">
            <g id="Group-15" transform="translate(441.000000, 104.000000)">
                <g id="Group-14" transform="translate(30.000000, 15.000000)">
                    <g id="Group-2" transform="translate(1.000000, 88.000000)">
                        <g id="Group-12" transform="translate(0.000000, 2.000000)">
                            <path d="M1.66666667,3.88888889 L1.66666667,1 C1.66666667,0.44771525 2.11438192,2.02606133e-13 2.66666667,2.0250468e-13 L7.33333333,2.0250468e-13 C7.88561808,2.02403227e-13 8.33333333,0.44771525 8.33333333,1 L8.33333333,3.88888889 L9,3.88888889 C9.55228475,3.88888889 10,4.33660414 10,4.88888889 L10,11.2222222 C10,11.774507 9.55228475,12.2222222 9,12.2222222 L1,12.2222222 C0.44771525,12.2222222 6.76353751e-17,11.774507 0,11.2222222 L0,4.88888889 C-6.76353751e-17,4.33660414 0.44771525,3.88888889 1,3.88888889 L1.66666667,3.88888889 Z M2.77777778,3.88888889 L7.22222222,3.88888889 L7.22222222,1.11111111 L2.77777778,1.11111111 L2.77777778,3.88888889 Z" id="Combined-Shape" fill="#507890"></path>
                            <path d="M4.55268857,9.98040929 C4.22497198,9.8162316 4,9.47728153 4,9.08578644 C4,8.53350169 4.44771525,8.08578644 5,8.08578644 C5.55228475,8.08578644 6,8.53350169 6,9.08578644 C6,9.47728153 5.77502802,9.8162316 5.44731143,9.98040929 L6,11.0857864 L4,11.0857864 L4.55268857,9.98040929 Z" id="Combined-Shape" fill="#FFFFFF" fill-rule="nonzero"></path>
                        </g>
                    </g>
                </g>
            </g>
        </g>
    </g>
</svg>